HIERARCHY
ROOT Hips
{
    OFFSET 0.000000 0.000000 0.000000
    CHANNELS 6 Xposition Yposition Zposition Zrotation Xrotation Yrotation
    JOINT Spine
    {
        OFFSET -0.000000 8.129577 0.000000
        CHANNELS 3 Zrotation Xrotation Yrotation
        JOINT Spine1
        {
            OFFSET -0.000000 26.390701 0.000000
            CHANNELS 3 Zrotation Xrotation Yrotation
            JOINT Neck
            {
                OFFSET -0.000000 26.282320 2.389302
                CHANNELS 3 Zrotation Xrotation Yrotation
                JOINT Head
                {
                    OFFSET -0.000000 13.879765 -1.982823
                    CHANNELS 3 Zrotation Xrotation Yrotation
                    End Site
                    {
                        OFFSET -0.000000 24.785294 0.000000
                    }
                }
            }
            JOINT LeftShoulder
            {
                OFFSET 3.977886 23.574526 -0.273520
                CHANNELS 3 Zrotation Xrotation Yrotation
                JOINT LeftArm
                {
                    OFFSET 13.762619 0.000000 0.000000
                    CHANNELS 3 Zrotation Xrotation Yrotation
                    JOINT LeftForeArm
                    {
                        OFFSET 26.101372 0.000000 0.000000
                        CHANNELS 3 Zrotation Xrotation Yrotation
                        JOINT LeftHand
                        {
                            OFFSET 29.959852 0.000000 0.000000
                            CHANNELS 3 Zrotation Xrotation Yrotation
                            End Site
                            {
                                OFFSET 14.871177 0.000000 0.000000
                            }
                        }
                    }
                }
            }
            JOINT RightShoulder
            {
                OFFSET -3.951699 23.574526 -0.273520
                CHANNELS 3 Zrotation Xrotation Yrotation
                JOINT RightArm
                {
                    OFFSET -13.762619 0.000000 0.000000
                    CHANNELS 3 Zrotation Xrotation Yrotation
                    JOINT RightForeArm
                    {
                        OFFSET -26.101372 0.000000 0.000000
                        CHANNELS 3 Zrotation Xrotation Yrotation
                        JOINT RightHand
                        {
                            OFFSET -29.959852 0.000000 0.000000
                            CHANNELS 3 Zrotation Xrotation Yrotation
                            End Site
                            {
                                OFFSET -14.871177 0.000000 0.000000
                            }
                        }
                    }
                }
            }
        }
    }
    JOINT LeftUpLeg
    {
        OFFSET 9.914117 0.000000 0.000000
        CHANNELS 3 Zrotation Xrotation Yrotation
        JOINT LeftLeg
        {
            OFFSET -0.000000 -41.427933 0.000000
            CHANNELS 3 Zrotation Xrotation Yrotation
            JOINT LeftFoot
            {
                OFFSET -0.000000 -41.025417 0.000000
                CHANNELS 3 Zrotation Xrotation Yrotation
                JOINT LeftToeBase
                {
                    OFFSET -0.000000 -6.444176 14.871177
                    CHANNELS 3 Zrotation Xrotation Yrotation
                    End Site
                    {
                        OFFSET -0.000000 0.000000 3.965647
                    }
                }
            }
        }
    }
    JOINT RightUpLeg
    {
        OFFSET -9.914117 0.000000 0.000000
        CHANNELS 3 Zrotation Xrotation Yrotation
        JOINT RightLeg
        {
            OFFSET -0.000000 -41.427933 0.000000
            CHANNELS 3 Zrotation Xrotation Yrotation
            JOINT RightFoot
            {
                OFFSET -0.000000 -41.025417 0.000000
                CHANNELS 3 Zrotation Xrotation Yrotation
                JOINT RightToeBase
                {
                    OFFSET -0.000000 -6.444176 14.871177
                    CHANNELS 3 Zrotation Xrotation Yrotation
                    End Site
                    {
                        OFFSET -0.000000 0.000000 3.965647
                    }
                }
            }
        }
    }
}
MOTION
Frames:    14
Frame Time:    0.004000
-24.965994    126.619461    -57.739849    2.490708    -0.416795    12.175784    0.836899    9.568434    -3.132969    -2.198300    -0.533684    -3.073101    2.440059    8.954474    -4.579751    -2.159520    -1.707886    -5.270620    -14.135881    28.405264    5.706206    -33.912846    39.145412    -33.884079    11.152586    -8.065730    -21.661890    4.417752    -5.906830    0.894565    21.135565    23.573284    -9.791878    41.796013    39.269390    18.449556    -12.131724    -10.375134    25.228632    1.911340    -7.582238    6.129465    -0.380928    -27.330294    4.976078    -2.377883    62.273640    -5.078916    -3.371131    -14.173473    3.398501    0.000000    0.000000    0.000000    0.211195    -9.342143    -1.324056    1.469084    22.800112    7.542773    -8.667852    -12.113616    -18.163162    0.000000    0.000000    0.000000    
-24.944601    126.687851    -57.590042    2.534129    -0.332985    12.119983    0.790557    9.442461    -3.054457    -2.246481    -0.561216    -3.000098    2.436610    8.961980    -4.558970    -2.153990    -1.632798    -5.246355    -14.185743    28.414436    5.779849    -33.967400    39.127754    -33.838196    11.110712    -8.014751    -21.599463    4.442308    -5.866799    0.970739    21.145546    23.547205    -9.790549    41.881966    39.246231    18.371948    -12.119151    -10.396381    25.248299    1.934536    -7.603558    6.100086    -0.467000    -27.328218    5.019630    -2.403485    61.320320    -5.117987    -3.184544    -14.104617    3.320134    0.000000    0.000000    0.000000    0.169580    -9.127407    -1.341443    1.434165    22.428373    7.524770    -8.529871    -12.052754    -18.053669    0.000000    0.000000    0.000000    
-24.922600    126.751434    -57.444977    2.571592    -0.252741    12.070819    0.775452    9.347447    -2.979383    -2.330901    -0.620339    -2.928535    2.450901    8.973787    -4.552838    -2.160119    -1.587712    -5.240829    -14.222841    28.404991    5.868661    -33.996857    39.129436    -33.808559    11.039503    -7.992438    -21.534416    4.410615    -5.862533    1.028955    21.196989    23.544350    -9.853829    41.891552    39.187046    18.409155    -12.117719    -10.323404    25.187017    2.028357    -7.530281    6.207539    -0.560275    -27.336742    5.069677    -2.351279    60.376797    -5.194788    -3.344147    -13.995370    3.481843    0.000000    0.000000    0.000000    0.131326    -8.922018    -1.362132    1.396998    22.103514    7.773566    -8.439191    -11.984791    -18.236177    0.000000    0.000000    0.000000    
-24.910828    126.787315    -57.294010    2.607007    -0.192515    11.972367    0.719251    9.254999    -2.878216    -2.369285    -0.660934    -2.833598    2.476109    9.026404    -4.557058    -2.200997    -1.626765    -5.252844    -14.240279    28.368256    5.919206    -34.137867    39.075703    -33.681702    10.941601    -7.917649    -21.508387    4.398427    -5.806989    1.076209    21.277248    23.544621    -9.937347    41.800682    39.274467    18.472216    -12.052418    -10.429133    25.203312    1.737559    -7.668940    5.965332    -0.602967    -27.309439    5.213655    -2.288697    59.442272    -5.332551    -3.462686    -13.996263    3.461578    0.000000    0.000000    0.000000    0.118506    -8.708322    -1.292846    1.370101    21.771534    7.779347    -8.374418    -11.988559    -18.136568    0.000000    0.000000    0.000000    
-24.889009    126.843689    -57.144379    2.635293    -0.115546    11.928220    0.703499    9.146076    -2.811285    -2.432067    -0.703266    -2.769888    2.457141    9.067105    -4.559034    -2.175364    -1.637931    -5.248909    -14.277591    28.371479    5.983417    -34.207150    39.054367    -33.612377    10.875718    -7.873666    -21.458139    4.458025    -5.777064    1.145450    21.255358    23.513103    -9.924161    41.936245    39.293079    18.372919    -12.072523    -10.438865    25.195488    1.832893    -7.669103    6.032414    -0.687300    -27.292442    5.229912    -2.321139    58.469410    -5.294912    -3.458737    -13.825326    3.383243    0.000000    0.000000    0.000000    0.094237    -8.510145    -1.288777    1.340887    21.444551    7.764122    -8.110859    -11.992763    -18.099957    0.000000    0.000000    0.000000    
-24.861652    126.893425    -56.991722    2.677088    -0.059081    11.895152    0.677448    9.070211    -2.752567    -2.473070    -0.759569    -2.715152    2.429248    9.083645    -4.549830    -2.181588    -1.612833    -5.237617    -14.358965    28.365780    6.082839    -34.118999    39.096691    -33.714920    10.751935    -7.864343    -21.244219    4.475995    -5.813002    1.115040    21.265133    23.503447    -9.967160    41.960220    39.303616    18.368984    -12.070703    -10.423713    25.197824    1.637039    -7.665686    5.928297    -0.797364    -27.243692    5.237009    -2.319434    57.507706    -5.325985    -3.494388    -13.773709    3.331632    0.000000    0.000000    0.000000    0.055437    -8.289768    -1.299996    1.298915    21.134680    7.815653    -8.179269    -11.909903    -18.150736    0.000000    0.000000    0.000000    
-24.839401    126.941666    -56.842209    2.700423    0.009186    11.853547    0.676445    8.966769    -2.688617    -2.543916    -0.795565    -2.653182    2.429389    9.066072    -4.527136    -2.192716    -1.534557    -5.214708    -14.357985    28.326576    6.109419    -34.352650    39.087395    -33.443523    10.762473    -7.835211    -21.347292    4.408033    -5.769937    1.179764    21.315725    23.535549    -10.023170    41.944519    39.246601    18.421780    -12.076180    -10.405723    25.163088    1.885151    -7.634998    6.075852    -0.879072    -27.200327    5.269976    -2.306344    56.515770    -5.232985    -3.505516    -13.590468    3.057521    0.000000    0.000000    0.000000    0.042300    -8.088676    -1.285245    1.275118    20.779049    7.377755    -8.014335    -11.889762    -17.687830    0.000000    0.000000    0.000000    
-24.802898    126.986908    -56.684994    2.726514    0.064072    11.823709    0.706455    8.878819    -2.630222    -2.662236    -0.836514    -2.594760    2.467981    9.094008    -4.520862    -2.214382    -1.551710    -5.213830    -14.371649    28.324312    6.181364    -34.457333    39.027336    -33.365864    10.688066    -7.765771    -21.329069    4.392766    -5.711464    1.303619    21.375195    23.506742    -10.062465    41.967144    39.274693    18.387587    -12.072502    -10.428218    25.144897    1.774956    -7.666821    6.041722    -0.992752    -27.130238    5.249712    -2.324631    55.524849    -5.237963    -3.471091    -13.415040    3.148607    0.000000    0.000000    0.000000    0.010430    -7.864958    -1.283772    1.264724    20.468157    7.308655    -7.991652    -11.846566    -17.621626    0.000000    0.000000    0.000000    
-24.776741    127.028404    -56.538929    2.751682    0.144445    11.791809    0.699250    8.781446    -2.574646    -2.730201    -0.892469    -2.542155    2.477243    9.111428    -4.505386    -2.228799    -1.538895    -5.199943    -14.403670    28.318892    6.253518    -34.579079    38.947548    -33.270248    10.562574    -7.702565    -21.299114    4.508641    -5.669239    1.406332    21.398716    23.480686    -10.092766    41.999439    39.279415    18.359558    -12.034212    -10.436347    25.148155    1.707656    -7.686727    6.041398    -1.107234    -27.106585    5.262076    -2.265679    54.556324    -5.410511    -3.536918    -13.175976    3.209917    0.000000    0.000000    0.000000    -0.014006    -7.691750    -1.287374    1.233090    20.187557    7.334813    -8.002190    -11.776557    -17.599394    0.000000    0.000000    0.000000    
-24.751368    127.058578    -56.378769    2.819001    0.152504    11.787402    0.655308    8.743571    -2.528374    -2.782298    -0.912389    -2.500358    2.466948    9.091310    -4.494974    -2.216525    -1.499403    -5.186245    -14.440129    28.300341    6.314937    -34.641834    38.932049    -33.202866    10.493400    -7.668976    -21.244371    4.501494    -5.653578    1.412723    21.426687    23.464680    -10.130910    42.008369    39.308052    18.370529    -12.046345    -10.446302    25.115934    1.850384    -7.689219    6.098303    -1.251309    -26.980179    5.248965    -2.216089    53.588760    -5.509451    -3.430655    -12.942060    3.185790    0.000000    0.000000    0.000000    -0.059112    -7.415730    -1.317068    1.197964    19.885807    7.310390    -8.166365    -11.753794    -17.529322    0.000000    0.000000    0.000000    
-24.727087    127.090218    -56.230080    2.825125    0.202089    11.778152    0.683037    8.676057    -2.483929    -2.852353    -0.973458    -2.456292    2.448335    9.125008    -4.477777    -2.201190    -1.515218    -5.164271    -14.486808    28.314037    6.384125    -34.657124    38.953884    -33.176865    10.453864    -7.665968    -21.164030    4.478890    -5.666276    1.401779    21.451391    23.451580    -10.155425    42.051147    39.264980    18.342291    -12.040084    -10.393678    25.091217    1.888327    -7.637229    6.163014    -1.348998    -26.915039    5.235542    -2.180814    52.627300    -5.476310    -3.498595    -12.709402    2.889031    0.000000    0.000000    0.000000    -0.055308    -7.210527    -1.315420    1.166849    19.601212    7.276368    -8.237055    -11.706546    -17.449503    0.000000    0.000000    0.000000    
-24.701977    127.118614    -56.074368    2.828104    0.258317    11.774604    0.724369    8.579527    -2.450235    -2.955310    -1.007605    -2.421817    2.481933    9.178929    -4.465452    -2.230585    -1.583981    -5.158320    -14.512863    28.310225    6.456368    -34.735764    38.926746    -33.105133    10.399106    -7.628795    -21.101463    4.458814    -5.645121    1.407647    21.499058    23.425274    -10.168120    42.092030    39.305157    18.289371    -12.068310    -10.440760    25.094042    1.996999    -7.671646    6.199407    -1.449192    -26.853682    5.198649    -2.172027    51.670017    -5.419132    -3.622306    -12.466649    2.834446    0.000000    0.000000    0.000000    -0.053993    -7.003399    -1.320417    1.152705    19.308123    7.238376    -8.417796    -11.659978    -17.380342    0.000000    0.000000    0.000000    
-24.674459    127.145302    -55.924339    2.834266    0.328534    11.765594    0.746794    8.493246    -2.413979    -3.018412    -1.067409    -2.386602    2.460352    9.172428    -4.441376    -2.218910    -1.553931    -5.129610    -14.581219    28.329258    6.552277    -34.762112    38.921593    -33.073620    10.361041    -7.616265    -21.038883    4.435191    -5.645974    1.402660    21.530508    23.428114    -10.191840    42.068302    39.360233    18.314535    -12.082335    -10.471814    25.040251    2.064638    -7.702106    6.199608    -1.565402    -26.806587    5.169719    -2.152874    50.701099    -5.370748    -3.845996    -12.140079    2.813821    0.000000    0.000000    0.000000    -0.060858    -6.826435    -1.317202    1.134849    19.041010    7.186614    -8.200841    -11.622122    -17.272022    0.000000    0.000000    0.000000    
-24.645184    127.165138    -55.780365    2.838609    0.394706    11.769622    0.773862    8.407374    -2.385883    -3.079860    -1.110008    -2.358807    2.474474    9.186587    -4.416495    -2.280266    -1.598180    -5.114758    -14.640437    28.330856    6.645010    -34.788670    38.902294    -33.052898    10.295116    -7.579376    -20.977650    4.435403    -5.626636    1.409394    21.532244    23.438591    -10.198379    42.093143    39.330185    18.324905    -11.993656    -10.510655    25.051445    1.909720    -7.769886    6.089641    -1.681952    -26.756462    5.111182    -2.117569    49.789547    -5.312027    -3.858241    -11.832855    2.467890    0.000000    0.000000    0.000000    -0.074304    -6.656754    -1.331600    1.126104    18.792198    7.152814    -8.166222    -11.628860    -17.243208    0.000000    0.000000    0.000000    
